# xmcd
#
# Track frame offsets: 
#        150
#        15215
#        31976
#        58357
#        74121
#        87537
#        123282
#        146884
#        167414
#        206096
#        236917
#        258943
#        300298
#
# Disc length: 4422 seconds
#
# Revision: 1
# Processed by: cddbd v1.5.2PL0 Copyright (c) Steve Scherf et al.
# Submitted via: ExactAudioCopyFreeDBPlugin 1.0
#
DISCID=b811440d
DTITLE=Gary Moore - 2007 - Live At Bush Hall
DYEAR=2014
DGENRE=Blues
TTITLE0=If The Devil Made Whiskey
TTITLE1=Thirty Days
TTITLE2=Trouble At Home
TTITLE3=Hard Times
TTITLE4=Eyesight To The Blind
TTITLE5=I Had A Dream
TTITLE6=Too Tired
TTITLE7=Gary's Blues
TTITLE8=Don't Believe A Word
TTITLE9=Still Got The Blues
TTITLE10=Walking By Myself
TTITLE11=The Blues Is Alright
TTITLE12=Sundown
EXTD=
EXTT0=
EXTT1=
EXTT2=
EXTT3=
EXTT4=
EXTT5=
EXTT6=
EXTT7=
EXTT8=
EXTT9=
EXTT10=
EXTT11=
EXTT12=
PLAYORDER=
